/* XPM */
static char * atc_ng_xpm[] = {
"32 32 876 2",
"  	c None",
". 	c #546C45",
"+ 	c #4F6643",
"@ 	c #4F6841",
"# 	c #516D3F",
"$ 	c #506D3D",
"% 	c #4F6D3B",
"& 	c #4E6E3A",
"* 	c #4D6F37",
"= 	c #4B6E36",
"- 	c #496C34",
"; 	c #436231",
"> 	c #41612F",
", 	c #456A2E",
"' 	c #47722C",
") 	c #46722A",
"! 	c #56803B",
"~ 	c #558139",
"{ 	c #447524",
"] 	c #437523",
"^ 	c #3D6C21",
"/ 	c #37611E",
"( 	c #36631D",
"_ 	c #3D731A",
": 	c #3E7819",
"< 	c #3F7D17",
"[ 	c #3E7D15",
"} 	c #3D7F13",
"| 	c #3D8011",
"1 	c #3C810F",
"2 	c #326F0D",
"3 	c #316F0B",
"4 	c #3A850A",
"5 	c #889A71",
"6 	c #6B8158",
"7 	c #4E6B3C",
"8 	c #4D6C3A",
"9 	c #4C6C38",
"0 	c #4B6C36",
"a 	c #4A6D34",
"b 	c #446532",
"c 	c #436431",
"d 	c #43672F",
"e 	c #466F2D",
"f 	c #47722B",
"g 	c #457228",
"h 	c #447126",
"i 	c #4F7C33",
"j 	c #6D9355",
"k 	c #6B9352",
"l 	c #4C7D2D",
"m 	c #366F12",
"n 	c #36700F",
"o 	c #35720C",
"p 	c #33710B",
"q 	c #2C640A",
"r 	c #2B6109",
"s 	c #2D660A",
"t 	c #377B0B",
"u 	c #387D0B",
"v 	c #3B800C",
"w 	c #3C830D",
"x 	c #3C850D",
"y 	c #34730B",
"z 	c #33730A",
"A 	c #B2C195",
"B 	c #829868",
"C 	c #4B6B37",
"D 	c #4A6B36",
"E 	c #496B33",
"F 	c #496C31",
"G 	c #3F5C30",
"H 	c #44672D",
"I 	c #466D2B",
"J 	c #456E2A",
"K 	c #436F28",
"L 	c #437026",
"M 	c #427125",
"N 	c #407021",
"O 	c #386C16",
"P 	c #447723",
"Q 	c #42771F",
"R 	c #2D6906",
"S 	c #2A6902",
"T 	c #2C6B03",
"U 	c #2E6E04",
"V 	c #2F7105",
"W 	c #317405",
"X 	c #337607",
"Y 	c #2F6D07",
"Z 	c #275C09",
"` 	c #428711",
" .	c #539323",
"..	c #569626",
"+.	c #498F18",
"@.	c #418C0F",
"#.	c #37760F",
"$.	c #4E6B39",
"%.	c #4B6A35",
"&.	c #486832",
"*.	c #476930",
"=.	c #44672E",
"-.	c #3C592D",
";.	c #446B2B",
">.	c #446D29",
",.	c #426C27",
"'.	c #416E25",
").	c #3F6E22",
"!.	c #3B6B1C",
"~.	c #2C600C",
"{.	c #235A00",
"].	c #215700",
"^.	c #306012",
"/.	c #366618",
"(.	c #2C6509",
"_.	c #306B09",
":.	c #326E0A",
"<.	c #36750C",
"[.	c #38790C",
"}.	c #3A7C0D",
"|.	c #3B7F0F",
"1.	c #3D820F",
"2.	c #428414",
"3.	c #5D833A",
"4.	c #9EC16F",
"5.	c #A3C674",
"6.	c #76AC45",
"7.	c #4F961C",
"8.	c #4A9615",
"9.	c #466631",
"0.	c #45672F",
"a.	c #45682E",
"b.	c #42662B",
"c.	c #3C5C2A",
"d.	c #426A27",
"e.	c #416B26",
"f.	c #406C24",
"g.	c #406E23",
"h.	c #386918",
"i.	c #255309",
"j.	c #1C4C00",
"k.	c #1E5100",
"l.	c #205400",
"m.	c #225900",
"n.	c #366C15",
"o.	c #427521",
"p.	c #336A10",
"q.	c #346911",
"r.	c #356B12",
"s.	c #356A13",
"t.	c #387214",
"u.	c #428515",
"v.	c #448615",
"w.	c #458916",
"x.	c #529221",
"y.	c #8EB95E",
"z.	c #CADA9D",
"A.	c #D2E2A3",
"B.	c #9DC46C",
"C.	c #5FA12B",
"D.	c #519B1C",
"E.	c #43672D",
"F.	c #41662A",
"G.	c #416828",
"H.	c #375627",
"I.	c #3F6824",
"J.	c #3F6923",
"K.	c #3E6B21",
"L.	c #3C6A1E",
"M.	c #2B5F09",
"N.	c #174000",
"O.	c #215600",
"P.	c #255F00",
"Q.	c #276300",
"R.	c #286600",
"S.	c #286700",
"T.	c #3D7717",
"U.	c #4E8528",
"V.	c #417E17",
"W.	c #438118",
"X.	c #448319",
"Y.	c #468419",
"Z.	c #427D1A",
"`.	c #3B6A1B",
" +	c #4C8F1B",
".+	c #4D901C",
"++	c #569724",
"@+	c #85B554",
"#+	c #BDD78D",
"$+	c #BED192",
"%+	c #94C160",
"&+	c #62A62C",
"*+	c #59A221",
"=+	c #3F6527",
"-+	c #3F6626",
";+	c #355524",
">+	c #3D6721",
",+	c #3C6820",
"'+	c #3B691E",
")+	c #366616",
"!+	c #235503",
"~+	c #174100",
"{+	c #266000",
"]+	c #276200",
"^+	c #276400",
"/+	c #2A6900",
"(+	c #2A6C00",
"_+	c #3F7C18",
":+	c #558C2D",
"<+	c #4A871D",
"[+	c #4B881E",
"}+	c #4D8A1E",
"|+	c #4F8E20",
"1+	c #519020",
"2+	c #519320",
"3+	c #447321",
"4+	c #529022",
"5+	c #589B23",
"6+	c #68A534",
"7+	c #86B952",
"8+	c #7FAA50",
"9+	c #608B38",
"0+	c #589924",
"a+	c #5DA225",
"b+	c #3D6523",
"c+	c #365B21",
"d+	c #37601F",
"e+	c #3A681D",
"f+	c #39691B",
"g+	c #2F620E",
"h+	c #1C4B00",
"i+	c #256100",
"j+	c #266200",
"k+	c #286500",
"l+	c #296800",
"m+	c #296900",
"n+	c #215800",
"o+	c #316512",
"p+	c #4D7C2B",
"q+	c #497A22",
"r+	c #4C8023",
"s+	c #559323",
"t+	c #579524",
"u+	c #589724",
"v+	c #5A9A25",
"w+	c #5C9D25",
"x+	c #528726",
"y+	c #5B9927",
"z+	c #61A428",
"A+	c #69AD2D",
"B+	c #325918",
"C+	c #3D5928",
"D+	c #345020",
"E+	c #4E881F",
"F+	c #39631E",
"G+	c #33591C",
"H+	c #37651A",
"I+	c #376717",
"J+	c #2C600B",
"K+	c #255D00",
"L+	c #174300",
"M+	c #276100",
"N+	c #266300",
"O+	c #2A6A00",
"P+	c #1B4C00",
"Q+	c #2B6F00",
"R+	c #407F17",
"S+	c #609734",
"T+	c #589325",
"U+	c #589127",
"V+	c #4F7C28",
"W+	c #599028",
"X+	c #60A128",
"Y+	c #61A129",
"Z+	c #62A229",
"`+	c #64A62A",
" @	c #57862A",
".@	c #67AC2A",
"+@	c #69AC2B",
"@@	c #68AA2B",
"#@	c #69AB2C",
"$@	c #629A2C",
"%@	c #6CB12C",
"&@	c #345F19",
"*@	c #2F5A17",
"=@	c #356615",
"-@	c #2C610A",
";@	c #245D00",
">@	c #184300",
",@	c #296700",
"'@	c #1F5300",
")@	c #235E00",
"!@	c #2E7300",
"~@	c #2C7200",
"{@	c #3B7E0F",
"]@	c #63993F",
"^@	c #81AF58",
"/@	c #72A641",
"(@	c #619E29",
"_@	c #66A42B",
":@	c #5E912B",
"<@	c #68A72C",
"[@	c #6AAA2C",
"}@	c #6BAC2C",
"|@	c #6CAC2D",
"1@	c #61922D",
"2@	c #70B42D",
"3@	c #72B42D",
"4@	c #72B72E",
"5@	c #6CA62E",
"6@	c #72B42E",
"7@	c #2A5314",
"8@	c #326312",
"9@	c #2B6108",
"0@	c #245E00",
"a@	c #1F5200",
"b@	c #225800",
"c@	c #2A6B00",
"d@	c #2C7100",
"e@	c #2D7300",
"f@	c #2E7600",
"g@	c #327B02",
"h@	c #4C8E1E",
"i@	c #73A93E",
"j@	c #6BA62F",
"k@	c #6AA52D",
"l@	c #6BA82D",
"m@	c #6DAA2D",
"n@	c #6AA32D",
"o@	c #679C2E",
"p@	c #71B22E",
"q@	c #72B22E",
"r@	c #75B62E",
"s@	c #6FA92E",
"t@	c #71AC2E",
"u@	c #78BB2F",
"v@	c #79BD2F",
"w@	c #78BA2F",
"x@	c #73AC2F",
"y@	c #264E10",
"z@	c #2C6309",
"A@	c #265E00",
"B@	c #266100",
"C@	c #2B6C00",
"D@	c #245F00",
"E@	c #235C00",
"F@	c #2D7400",
"G@	c #2F7700",
"H@	c #307A00",
"I@	c #2F6010",
"J@	c #628B33",
"K@	c #66972E",
"L@	c #72AE2E",
"M@	c #72AF2E",
"N@	c #73B12E",
"O@	c #75B42E",
"P@	c #6DA12E",
"Q@	c #74AF2F",
"R@	c #79BA2F",
"S@	c #7BBB2F",
"T@	c #75AC2F",
"U@	c #7EC12F",
"V@	c #80C32F",
"W@	c #82C72F",
"X@	c #76AB2F",
"Y@	c #255409",
"Z@	c #276101",
"`@	c #256000",
" #	c #2C6F00",
".#	c #1C4D00",
"+#	c #2F7600",
"@#	c #2E7500",
"##	c #225A00",
"$#	c #2F7A00",
"%#	c #4B9218",
"&#	c #7CB53B",
"*#	c #74AD2F",
"=#	c #6E9C2F",
"-#	c #77B02F",
";#	c #7BB82F",
">#	c #7CBA2F",
",#	c #7FBF2F",
"'#	c #72A02F",
")#	c #81C12E",
"!#	c #81C12F",
"~#	c #82C22F",
"{#	c #7DB62F",
"]#	c #83C32F",
"^#	c #86C82F",
"/#	c #88CB2F",
"(#	c #7FB72E",
"_#	c #265F02",
":#	c #256200",
"<#	c #246000",
"[#	c #2E7700",
"}#	c #317D00",
"|#	c #327E00",
"1#	c #338200",
"2#	c #4B9217",
"3#	c #81B83A",
"4#	c #7EB92F",
"5#	c #7EB92E",
"6#	c #76A62F",
"7#	c #82BF2F",
"8#	c #83C02E",
"9#	c #83C22D",
"0#	c #80B92F",
"a#	c #82BB2F",
"b#	c #88C72E",
"c#	c #89C92F",
"d#	c #84BD2E",
"e#	c #8AC72E",
"f#	c #8CCE2E",
"g#	c #8DD02C",
"h#	c #8CCA2E",
"i#	c #40761C",
"j#	c #2E6B05",
"k#	c #276500",
"l#	c #397F0B",
"m#	c #418713",
"n#	c #266400",
"o#	c #348300",
"p#	c #348500",
"q#	c #4C9516",
"r#	c #86BE39",
"s#	c #84BE2F",
"t#	c #86C12F",
"u#	c #81B82E",
"v#	c #83BA2E",
"w#	c #8EC936",
"x#	c #96CD42",
"y#	c #8BC82D",
"z#	c #86BB2E",
"A#	c #8ECD2D",
"B#	c #90CF2D",
"C#	c #8AC32D",
"D#	c #8FCE2C",
"E#	c #95D331",
"F#	c #A1DA44",
"G#	c #95D62C",
"H#	c #40781C",
"I#	c #5D8D3D",
"J#	c #488023",
"K#	c #3C7319",
"L#	c #3B7118",
"M#	c #45831D",
"N#	c #46861D",
"O#	c #366B15",
"P#	c #46871C",
"Q#	c #54932B",
"R#	c #5E9C35",
"S#	c #2E6011",
"T#	c #4E961E",
"U#	c #4C941D",
"V#	c #4D961D",
"W#	c #508A23",
"X#	c #8FBA40",
"Y#	c #95CB3A",
"Z#	c #96CC3A",
"`#	c #99D03A",
" $	c #8BB734",
".$	c #9FD443",
"+$	c #A7D851",
"@$	c #9AD236",
"#$	c #93C534",
"$$	c #9DD736",
"%$	c #9ED836",
"&$	c #99CD34",
"*$	c #9FD735",
"=$	c #A5DE3C",
"-$	c #B1E353",
";$	c #A4E035",
">$	c #417B1C",
",$	c #5F913F",
"'$	c #498323",
")$	c #3E7619",
"!$	c #3B7218",
"~$	c #46871D",
"{$	c #48891D",
"]$	c #376D15",
"^$	c #478A1C",
"/$	c #55952B",
"($	c #5F9F36",
"_$	c #306311",
":$	c #4F991E",
"<$	c #4D971D",
"[$	c #4E991D",
"}$	c #529325",
"|$	c #B1C86D",
"1$	c #A4D440",
"2$	c #9BD336",
"3$	c #9ED537",
"4$	c #92C031",
"5$	c #A5DA41",
"6$	c #ADDD4F",
"7$	c #A0D734",
"8$	c #9ACC31",
"9$	c #A5DD35",
"0$	c #A6DE35",
"a$	c #A0D432",
"b$	c #A6DD33",
"c$	c #ACE33A",
"d$	c #B7E752",
"e$	c #ABE432",
"f$	c #2A6E00",
"g$	c #35750A",
"h$	c #2E7301",
"i$	c #307900",
"j$	c #256300",
"k$	c #378504",
"l$	c #3B8A07",
"m$	c #388E00",
"n$	c #389000",
"o$	c #4B9B17",
"p$	c #479B12",
"q$	c #BAD169",
"r$	c #A1D630",
"s$	c #93C725",
"t$	c #99D125",
"u$	c #9DD829",
"v$	c #A1DA2D",
"w$	c #9EDA25",
"x$	c #9CCF28",
"y$	c #A4DF2C",
"z$	c #A4E027",
"A$	c #A0D725",
"B$	c #A5DF26",
"C$	c #A7E427",
"D$	c #ACE62F",
"E$	c #A9E524",
"F$	c #286800",
"G$	c #327F00",
"H$	c #368700",
"I$	c #358800",
"J$	c #388D00",
"K$	c #276800",
"L$	c #368A00",
"M$	c #3B9400",
"N$	c #4D9F17",
"O$	c #4EA117",
"P$	c #399900",
"Q$	c #A7C954",
"R$	c #A3CE2F",
"S$	c #A0DC21",
"T$	c #A2DE22",
"U$	c #A3DF20",
"V$	c #ADDB3D",
"W$	c #D0E495",
"X$	c #DBE9A8",
"Y$	c #C8E779",
"Z$	c #A9DD29",
"`$	c #AAE421",
" %	c #AEE921",
".%	c #AEE920",
"+%	c #ACE41F",
"@%	c #307800",
"#%	c #2F7900",
"$%	c #378C00",
"%%	c #388F00",
"&%	c #378B00",
"*%	c #296E00",
"=%	c #4B9A16",
"-%	c #4B9B16",
";%	c #2C7500",
">%	c #377F07",
",%	c #AFD059",
"'%	c #AEE325",
")%	c #A8E31C",
"!%	c #A8E418",
"~%	c #CEE28B",
"{%	c #DEE9B3",
"]%	c #DDE9AF",
"^%	c #DCE8AE",
"/%	c #BFE354",
"(%	c #B0EA1A",
"_%	c #B2ED1B",
":%	c #B4EF1A",
"<%	c #ADE317",
"[%	c #205600",
"}%	c #317C00",
"|%	c #317B00",
"1%	c #266500",
"2%	c #328000",
"3%	c #358600",
"4%	c #368800",
"5%	c #358500",
"6%	c #399100",
"7%	c #399200",
"8%	c #3C9800",
"9%	c #3A9300",
"0%	c #387B0F",
"a%	c #3A7E0F",
"b%	c #3D9B01",
"c%	c #43A503",
"d%	c #41A503",
"e%	c #C2DB6C",
"f%	c #B6EA22",
"g%	c #A8DD10",
"h%	c #D4E991",
"i%	c #DDE8B1",
"j%	c #DDE8AF",
"k%	c #DCE8AC",
"l%	c #C5EB55",
"m%	c #B6F113",
"n%	c #B8F213",
"o%	c #B9F313",
"p%	c #B3E710",
"q%	c #3C9700",
"r%	c #3C9900",
"s%	c #44A008",
"t%	c #65B331",
"u%	c #65B52F",
"v%	c #51AC16",
"w%	c #47A806",
"x%	c #4BAC0B",
"y%	c #4EB00D",
"z%	c #ABC853",
"A%	c #B9EA1B",
"B%	c #C1EE3B",
"C%	c #D9EA9C",
"D%	c #D2E882",
"E%	c #BDF11C",
"F%	c #BCF50B",
"G%	c #BCF50C",
"H%	c #BBF30A",
"I%	c #BAF108",
"J%	c #286900",
"K%	c #338300",
"L%	c #368900",
"M%	c #276700",
"N%	c #338000",
"O%	c #399000",
"P%	c #286B00",
"Q%	c #3E9C00",
"R%	c #3F9F00",
"S%	c #43A204",
"T%	c #5DB027",
"U%	c #5FB328",
"V%	c #51AE12",
"W%	c #4DB00B",
"X%	c #4FB00F",
"Y%	c #357A0C",
"Z%	c #51A41A",
"`%	c #BFDF60",
" &	c #C1F50E",
".&	c #BFF419",
"+&	c #C1F023",
"@&	c #BDF00F",
"#&	c #BEF704",
"$&	c #BEF805",
"%&	c #BFF805",
"&&	c #BDF304",
"*&	c #BFF705",
"=&	c #3B9500",
"-&	c #3C9600",
";&	c #3D9A00",
">&	c #3E9E00",
",&	c #53AC1A",
"'&	c #58AF1E",
")&	c #49A70B",
"!&	c #38830A",
"~&	c #35790B",
"{&	c #58B817",
"]&	c #5BBC1A",
"^&	c #58BC1A",
"/&	c #CBE46F",
"(&	c #C3F70E",
"_&	c #BBF003",
":&	c #C0F906",
"<&	c #BCF304",
"[&	c #BFF906",
"}&	c #2A7000",
"|&	c #3E9B00",
"1&	c #3D9C00",
"2&	c #42A600",
"3&	c #348403",
"4&	c #438C16",
"5&	c #468E19",
"6&	c #3E8D0C",
"7&	c #50AD12",
"8&	c #5ABE17",
"9&	c #5BBC1B",
"0&	c #5EBF1E",
"a&	c #64C523",
"b&	c #5FBC23",
"c&	c #B0CC53",
"d&	c #C5F812",
"e&	c #BFF905",
"f&	c #C0F806",
"g&	c #BCF405",
"h&	c #BFF706",
"i&	c #C1FA07",
"j&	c #358700",
"k&	c #388C00",
"l&	c #2A6D00",
"m&	c #307D00",
"n&	c #3B9700",
"o&	c #3D9B00",
"p&	c #40A400",
"q&	c #40A200",
"r&	c #41A500",
"s&	c #44A802",
"t&	c #48AC06",
"u&	c #5DB720",
"v&	c #61BB25",
"w&	c #54B713",
"x&	c #58BA17",
"y&	c #5BBD1B",
"z&	c #5FC01F",
"A&	c #65C923",
"B&	c #54A71F",
"C&	c #478F1C",
"D&	c #6EC831",
"E&	c #C9E767",
"F&	c #C4F90A",
"G&	c #C0FA05",
"H&	c #BEF505",
"I&	c #BEF405",
"J&	c #378E00",
"K&	c #2E5C11",
"L&	c #305B14",
"M&	c #307E00",
"N&	c #3FA100",
"O&	c #42A500",
"P&	c #47AC05",
"Q&	c #4CB009",
"R&	c #5FBA24",
"S&	c #64BE28",
"T&	c #58BA16",
"U&	c #5CBE1B",
"V&	c #5DBE1D",
"W&	c #5FBE21",
"X&	c #49941B",
"Y&	c #52A121",
"Z&	c #6FD12E",
"`&	c #70CF31",
" *	c #6ED131",
".*	c #D2EA73",
"+*	c #C4F810",
"@*	c #C2FA08",
"#*	c #C2FB08",
"$*	c #C1FA08",
"%*	c #2B7300",
"&*	c #376C13",
"**	c #3F7818",
"=*	c #61843F",
"-*	c #4C9B15",
";*	c #42A700",
">*	c #338400",
",*	c #368A02",
"'*	c #3C9206",
")*	c #409509",
"!*	c #509E1F",
"~*	c #53A122",
"{*	c #499E15",
"]*	c #4DA018",
"^*	c #4D9D1A",
"/*	c #4D9B1D",
"(*	c #63BD27",
"_*	c #71D031",
":*	c #74D335",
"<*	c #7ADB3A",
"[*	c #6FC637",
"}*	c #B7D358",
"|*	c #C7FA13",
"1*	c #C1FB07",
"2*	c #3A9400",
"3*	c #3D9900",
"4*	c #2B7200",
"5*	c #3F8D0B",
"6*	c #B3D97D",
"7*	c #7ABD3F",
"8*	c #3EA600",
"9*	c #43A900",
"0*	c #45AE01",
"a*	c #49AA09",
"b*	c #4DAD0E",
"c*	c #5FB626",
"d*	c #63BA2A",
"e*	c #58B71A",
"f*	c #5CBA1F",
"g*	c #64C524",
"h*	c #6BCC2A",
"i*	c #6DCF2D",
"j*	c #71D131",
"k*	c #74D435",
"l*	c #7CDD3B",
"m*	c #60AF2F",
"n*	c #5BA42E",
"o*	c #83DB46",
"p*	c #D1ED71",
"q*	c #C6FB0B",
"r*	c #C2FB07",
"s*	c #C3FC09",
"t*	c #3F9E00",
"u*	c #41A400",
"v*	c #438A11",
"w*	c #52AC13",
"x*	c #4CAE09",
"y*	c #45AE00",
"z*	c #48B004",
"A*	c #4CB408",
"B*	c #51B80D",
"C*	c #56BB13",
"D*	c #6CC631",
"E*	c #70C935",
"F*	c #64C724",
"G*	c #66C924",
"H*	c #69CC28",
"I*	c #6DCF2C",
"J*	c #71D331",
"K*	c #75D535",
"L*	c #73CE36",
"M*	c #5BA62C",
"N*	c #66B534",
"O*	c #85E345",
"P*	c #84E047",
"Q*	c #83E247",
"R*	c #D6EE77",
"S*	c #C7FC13",
"T*	c #BDF306",
"U*	c #3E9D00",
"V*	c #44A900",
"W*	c #5EA727",
"X*	c #9EC26F",
"Y*	c #88BD54",
"Z*	c #4AA50D",
"`*	c #4CB705",
" =	c #51BC0A",
".=	c #54BD0E",
"+=	c #5EC21D",
"@=	c #82D04E",
"#=	c #84D350",
"$=	c #77D03C",
"%=	c #69CF25",
"&=	c #6FD42C",
"*=	c #72D630",
"==	c #64BB2C",
"-=	c #5DAB2B",
";=	c #5DA92D",
">=	c #72C83A",
",=	c #84E245",
"'=	c #85E248",
")=	c #88E44B",
"!=	c #8AE64E",
"~=	c #90E954",
"{=	c #BBD65C",
"]=	c #C6F913",
"^=	c #378D00",
"/=	c #2B7100",
"(=	c #45AB01",
"_=	c #7BC23D",
":=	c #C9E199",
"<=	c #ABD476",
"[=	c #4FA115",
"}=	c #348105",
"|=	c #378408",
"1=	c #449B0D",
"2=	c #53B413",
"3=	c #6BC72D",
"4=	c #6FCA32",
"5=	c #5DBC20",
"6=	c #53A51F",
"7=	c #4A931D",
"8=	c #4C9521",
"9=	c #65B92E",
"0=	c #74D138",
"a=	c #7EDD3F",
"b=	c #83E144",
"c=	c #86E248",
"d=	c #89E44B",
"e=	c #8CE750",
"f=	c #91EC54",
"g=	c #5D9E36",
"h=	c #89DA52",
"i=	c #D4F270",
". + @ # $ % & * = - ; > , ' ) ! ~ { ] ^ / ( _ : < [ } | 1 2 3 4 ",
"5 6 7 8 9 0 a b c d e f g h i j k l m n o p q r s t u v w x y z ",
"A B C D E F G H I J K L M N O P Q R S T U V W X Y Z `  ...+.@.#.",
"$.%.&.*.=.-.;.>.,.'.).!.~.{.].^./.(._.:.<.[.}.|.1.2.3.4.5.6.7.8.",
"9.0.a.b.c.d.e.f.g.h.i.j.k.l.m.n.o.p.q.r.s.t.u.v.w.x.y.z.A.B.C.D.",
"E.F.G.H.I.J.K.L.M.N.O.P.Q.R.S.T.U.V.W.X.Y.Z.`. +.+++@+#+$+%+&+*+",
"=+-+;+>+,+'+)+!+~+{+]+^+R./+(+_+:+<+[+}+|+1+2+3+4+5+6+7+8+9+0+a+",
"b+c+d+e+f+g+l.h+i+j+k+l+m+m.n+o+p+q+r+s+t+u+v+w+x+y+z+A+B+C+D+E+",
"F+G+H+I+J+K+L+M+N+R.O+m.P+l+Q+R+S+T+U+V+W+X+Y+Z+`+ @.@+@@@#@$@%@",
"&@*@=@-@;@>@j+^+R.,@'@)@!@~@{@]@^@/@(@_@:@:@<@[@}@|@1@2@3@4@5@6@",
"7@8@9@0@a@b@R.,@c@l.R.d@e@f@g@h@i@j@k@l@m@n@o@p@q@r@s@t@u@v@w@x@",
"y@z@A@B@k.N+l+C@D@E@!@F@G@H@E@I@J@K@L@M@N@O@P@Q@R@S@S@T@U@V@W@X@",
"Y@Z@]+`@O.m+(+ #.#+#@#G@ ###$#%#&#*#=#-#;#>#,#'#)#!#~#{#]#^#/#(#",
"_#:#k+j+##(+ #<#O+f@[#}###|#1#2#3#4#5#6#7#8#9#0#a#b#c#d#e#f#g#h#",
"N+i#j#k#;@ #e@E@@#l#m#n#@#o#p#q#r#s#t#u#v#w#x#y#z#A#B#C#D#E#F#G#",
"H#I#J#K#L#M#N#O#P#Q#R#S#T#U#V#W#X#Y#Z#`# $.$+$@$#$$$%$&$*$=$-$;$",
">$,$'$)$!$~${$]$^$/$($_$:$<$[$}$|$1$2$3$4$5$6$7$8$9$0$a$b$c$d$e$",
"f$g$h$Q+k#i$}#j$|#k$l$[#e@m$n$o$p$q$r$s$t$u$v$w$x$y$z$A$B$C$D$E$",
"c@e@@#d@F$}#G$~@d@H$I$J$K$L$M$N$O$P$Q$R$S$T$U$V$W$X$Y$Z$`$ %.%+%",
"##@%#%f@K$G$1#H$n+m$$%%%&%*%~@=%-%;%>%,%'%)%!%~%{%]%^%/%(%_%:%<%",
"[%}%|%G$1%2%3%4%5%1%6%7%M$8%9%0%a%b%c%d%e%f%g%h%i%j%k%l%m%n%o%p%",
"j+f@G$1#@#f$&%&%%%#%$#q%q%r%s%t%u%v%w%x%y%z%A%B%C%X$D%E%F%G%H%I%",
"[#J%K%p#L%M%N%O%6%9%2%P%Q%R%S%T%U%V%W%X%Y%Z%`% &.&+&@&#&$&%&&&*&",
"G$J%1#4%&%6%:#m$=&-&;&;&K$$#>&,&'&)&!&~&{&]&^&/&(&_&%&%&:&%&<&[&",
"p#f@d@m$J$O%J$}&9%|&1&R%2&;&3&4&5&6&7&8&9&0&a&b&c&d&e&f&:&g&h&i&",
"j&k&l&m&9%n&o&n&f$L$p&q&r&s&t&u&v&w&x&y&z&A&B&C&D&E&F&G&H&I&i&i&",
"&%J$9%J%J&I@K&L&J&m&M&N&O&P&Q&R&S&T&U&V&W&X&Y&Z&`& *.*+*&&@*#*$*",
"m$O%9%9%%*&***=*-*;*r%>*,*'*)*!*~*{*]*^*/*(*Z&_*:*<*[*}*|*1*@*#*",
"2*9%n&3*r%4*5*6*7*8*9*0*P&a*b*c*d*e*f*g*h*i*j*k*l*m*n*o*p*q*r*s*",
"l&8%;&Q%t*u*1#v*w*x*y*z*A*B*C*D*E*F*G*H*I*J*K*L*M*N*O*P*Q*R*S*T*",
"j&#%U*R%q&u*V*W*X*Y*Z*`* =.=+=@=#=$=%=&=*===-=;=>=,='=)=!=~={=]=",
"Q%^=/=2&r&;*(=_=:=<=[=}=|=1=2=3=4=5=6=7=8=9=0=a=b=c=d=e=f=g=h=i="};
